#tb 0: 1/1000
0,          0,          0,        0,    60600, 20c41d4a1271183dbbc7a44e6b90ea80
0,         33,         33,        0,    60600, bd8c1fba8d8742f4d98b7d5097c8c828
0,         66,         66,        0,    60600, 55cbe06a925009c1b1f9b609b60b4c1d
0,        100,        100,        0,    60600, 78e80c7cf1f142e2dda1bc269b5b3e00
0,        133,        133,        0,    60600, 42ee8157a4c8af6670b81e9324b251e9
0,        166,        166,        0,    60600, 022bdf5a2e1ea5f98503cd25b383ae53
0,        200,        200,        0,    60600, c2073865386a991da01966878ce1ce6d
0,        233,        233,        0,    60600, 6a5b95cd4eff0836b9180a25f663d36a
0,        266,        266,        0,    60600, 5e5498c357340d4755dc98eb0669f103
0,        300,        300,        0,    60600, 0907d5e4020111b1ecfe707df71bcd8a
